<svg id="Pattern_Background" data-name="Pattern Background" xmlns="http://www.w3.org/2000/svg" width="1369.159" height="768.65" viewBox="0 0 1369.159 768.65">
  <path id="Path_321" data-name="Path 321" d="M4299-198.283V-92.41h105.586Z" transform="translate(-4297.554 861.06)" fill="#e5ebf3"/>
  <path id="Path_322" data-name="Path 322" d="M4299-444v142.625L4510.262-94.053h229.571l668.992-665.958s44.5-45.51,93.042,0,164.846,167.88,164.846,167.88V-737.762L5537.68-861.06H5372.923L4662.214-148.665s-41.465,33.374-73.827,0S4299-444,4299-444Z" transform="translate(-4297.554 861.06)" fill="#e5ebf3"/>
  <path id="Path_323" data-name="Path 323" d="M4299-650.283l272.7,281.149s27.306,32.362,65.736,0,311.488-310.477,311.488-310.477,72.815,62.7,0,135.518-297.33,295.307-297.33,295.307-44.5,38.43-92.031,0S4299-500.606,4299-500.606Z" transform="translate(-4297.554 861.06)" fill="#e5ebf3"/>
  <path id="Path_324" data-name="Path 324" d="M4323.418-861.06,4586.363-598.2s44.5,49.555,78.883,0S4928.191-861.06,4928.191-861.06h70.792s9.61,52.971-21.507,84.867-306.51,303.4-306.51,303.4-41.231,28.784-89.463,0-283.949-276.559-283.949-276.559V-861.06Z" transform="translate(-4297.554 861.06)" fill="#e5ebf3"/>
  <path id="Path_325" data-name="Path 325" d="M4407.234-861l187.351,195.26s63.064-70.429,17.032-125.668S4542.569-861,4542.569-861Z" transform="translate(-4297.554 861.06)" fill="#e5ebf3"/>
  <path id="Path_326" data-name="Path 326" d="M4812.646-94.053l548.9-549.655s69.782-75.849,151.7,0,151.7,154.733,151.7,154.733v133.495L5472.789-544.6s-39.441-34.385-75.85,0-448.27,450.545-448.27,450.545Z" transform="translate(-4297.554 861.06)" fill="#e5ebf3"/>
  <path id="Path_327" data-name="Path 327" d="M5082.923-93s-4.045-27.6,31.351-65.02,282.16-278.115,282.16-278.115,56.635-54.612,124.394,0,143.608,147.654,143.608,147.654V-158.02L5482.4-332.979s-28.316-22.249-54.611,0S5182.034-93,5182.034-93Z" transform="translate(-4297.554 861.06)" fill="#e5ebf3"/>
  <path id="Subtraction_1" data-name="Subtraction 1" d="M-4140.208,1002.574h-140.84c-1.2-.608-1.905-.982-2.034-1.051h0l0,0,119.085-113a107.425,107.425,0,0,1,19.183-13.761,110.077,110.077,0,0,1,21.475-9.461,90.552,90.552,0,0,1,27.172-4.3c24.515,0,47.8,10.669,69.207,31.711,69.075,67.893,110.891,108.409,111.305,108.81h-140.628A83.66,83.66,0,0,0-4069.206,989c-7.3-5.713-18.675-12.523-31.4-12.523-14.31,0-27.382,8.427-38.853,25.046-.253.367-.5.721-.744,1.053Z" transform="translate(5235.446 -234.515)" fill="#e5ebf3"/>
  <rect id="Rectangle_48" data-name="Rectangle 48" width="91" height="91" rx="13" transform="translate(752.084 124.728) rotate(-45)" fill="#e5ebf3"/>
</svg>
